{"asset":{"version":"2.0","generator":"babylon.js glTF exporter for 3dsmax 2020 v20251111.2"},"scene":0,"scenes":[{"nodes":[0,1,2,3,4,5]}],"nodes":[{"mesh":0,"translation":[0.007525897,-0.0100865932,-0.0059994664],"name":"Plane001"},{"mesh":0,"translation":[0.007525897,-0.0100865932,-0.0059994664],"rotation":[0.7071068,0.0,0.0,0.7071067],"name":"Plane002"},{"mesh":1,"translation":[0.0179905258,0.0170125,0.041026175],"rotation":[0.329154074,-0.579476655,0.113148406,0.73692733],"name":"Box001"},{"mesh":2,"translation":[0.0179905258,0.0170125,0.041026175],"rotation":[0.329154074,-0.579476655,0.113148406,0.73692733],"name":"Plane003"},{"mesh":3,"translation":[-0.046439264,-0.004803922,0.126849681],"scale":[0.268913,0.268913,0.268913],"name":"Text001"},{"mesh":4,"translation":[-0.05866059,0.09078273,-0.005967298],"rotation":[0.7071068,0.0,0.0,0.7071067],"scale":[0.294169545,0.294169545,0.294169545],"name":"Text003"}],"meshes":[{"primitives":[{"attributes":{"POSITION":1,"NORMAL":2,"TEXCOORD_0":3},"indices":0,"material":0}],"name":"Plane001"},{"primitives":[{"attributes":{"POSITION":5,"NORMAL":6,"TEXCOORD_0":7},"indices":4,"material":1}],"name":"Box001"},{"primitives":[{"attributes":{"POSITION":9,"NORMAL":10,"TEXCOORD_0":11},"indices":8,"material":2}],"name":"Plane003"},{"primitives":[{"attributes":{"POSITION":13,"NORMAL":14},"indices":12,"material":3}],"name":"Text001"},{"primitives":[{"attributes":{"POSITION":16,"NORMAL":17},"indices":15,"material":3}],"name":"Text003"}],"accessors":[{"bufferView":0,"componentType":5123,"count":96,"type":"SCALAR","name":"accessorIndices"},{"bufferView":1,"componentType":5126,"count":25,"max":[0.105,0.0,0.145],"min":[-0.105,0.0,-0.145],"type":"VEC3","name":"accessorPositions"},{"bufferView":1,"byteOffset":300,"componentType":5126,"count":25,"type":"VEC3","name":"accessorNormals"},{"bufferView":2,"componentType":5126,"count":25,"type":"VEC2","name":"accessorUVs"},{"bufferView":0,"byteOffset":192,"componentType":5123,"count":36,"type":"SCALAR","name":"accessorIndices"},{"bufferView":1,"byteOffset":600,"componentType":5126,"count":24,"max":[0.02,0.04,0.02],"min":[-0.02,0.0,-0.02],"type":"VEC3","name":"accessorPositions"},{"bufferView":1,"byteOffset":888,"componentType":5126,"count":24,"type":"VEC3","name":"accessorNormals"},{"bufferView":2,"byteOffset":200,"componentType":5126,"count":24,"type":"VEC2","name":"accessorUVs"},{"bufferView":0,"byteOffset":264,"componentType":5123,"count":96,"type":"SCALAR","name":"accessorIndices"},{"bufferView":1,"byteOffset":1176,"componentType":5126,"count":25,"max":[0.105,0.0,0.145],"min":[-0.105,0.0,-0.145],"type":"VEC3","name":"accessorPositions"},{"bufferView":1,"byteOffset":1476,"componentType":5126,"count":25,"type":"VEC3","name":"accessorNormals"},{"bufferView":2,"byteOffset":392,"componentType":5126,"count":25,"type":"VEC2","name":"accessorUVs"},{"bufferView":0,"byteOffset":456,"componentType":5123,"count":285,"type":"SCALAR","name":"accessorIndices"},{"bufferView":1,"byteOffset":1776,"componentType":5126,"count":97,"max":[0.0839724,0.0,0.0],"min":[-0.0839724,0.0,-0.0976884],"type":"VEC3","name":"accessorPositions"},{"bufferView":1,"byteOffset":2940,"componentType":5126,"count":97,"type":"VEC3","name":"accessorNormals"},{"bufferView":0,"byteOffset":1028,"componentType":5123,"count":948,"type":"SCALAR","name":"accessorIndices"},{"bufferView":1,"byteOffset":4104,"componentType":5126,"count":530,"max":[0.0851665959,0.006193396,0.0],"min":[-0.0851665959,0.0,-0.0976884],"type":"VEC3","name":"accessorPositions"},{"bufferView":1,"byteOffset":10464,"componentType":5126,"count":530,"type":"VEC3","name":"accessorNormals"}],"bufferViews":[{"buffer":0,"byteLength":2924,"name":"bufferViewScalar"},{"buffer":0,"byteOffset":2924,"byteLength":16824,"byteStride":12,"name":"bufferViewFloatVec3"},{"buffer":0,"byteOffset":19748,"byteLength":592,"byteStride":8,"name":"bufferViewFloatVec2"}],"buffers":[{"uri":"diedrico 3.bin","byteLength":20340}],"materials":[{"pbrMetallicRoughness":{"baseColorFactor":[0.5882353,0.5882353,0.5882353,1.0],"metallicFactor":0.0,"roughnessFactor":0.450053632},"name":"03 - Default"},{"pbrMetallicRoughness":{"baseColorFactor":[0.03137255,0.4627451,0.9529412,1.0],"metallicFactor":0.0,"roughnessFactor":0.450053632},"name":"01 - Default"},{"pbrMetallicRoughness":{"baseColorFactor":[0.3372549,0.3019608,0.156862751,1.0],"metallicFactor":0.0,"roughnessFactor":0.450053632},"name":"02 - Default"},{"pbrMetallicRoughness":{"baseColorFactor":[0.0117647061,0.0117647061,0.0117647061,1.0],"metallicFactor":0.0,"roughnessFactor":0.450053632},"name":"07 - Default"}]}